<?xml version="1.0" encoding="UTF-8" standalone="no"?>
<svg
   xmlns:dc="http://purl.org/dc/elements/1.1/"
   xmlns:cc="http://creativecommons.org/ns#"
   xmlns:rdf="http://www.w3.org/1999/02/22-rdf-syntax-ns#"
   xmlns:svg="http://www.w3.org/2000/svg"
   xmlns="http://www.w3.org/2000/svg"
   xmlns:sodipodi="http://sodipodi.sourceforge.net/DTD/sodipodi-0.dtd"
   xmlns:inkscape="http://www.inkscape.org/namespaces/inkscape"
   viewBox="0 0 270 160"
   version="1.1"
   id="svg4"
   sodipodi:docname="background-venue.svg"
   width="270"
   height="160"
   inkscape:version="0.92.5 (2060ec1f9f, 2020-04-08)"
   inkscape:export-filename="/home/sujit/Documents/My Projects/web-app-vibrance/public/assets/admin/images/background-user.png"
   inkscape:export-xdpi="96"
   inkscape:export-ydpi="96">
  <metadata
     id="metadata10">
    <rdf:RDF>
      <cc:Work
         rdf:about="">
        <dc:format>image/svg+xml</dc:format>
        <dc:type
           rdf:resource="http://purl.org/dc/dcmitype/StillImage" />
        <dc:title></dc:title>
      </cc:Work>
    </rdf:RDF>
  </metadata>
  <defs
     id="defs8" />
  <sodipodi:namedview
     pagecolor="#ffffff"
     bordercolor="#666666"
     borderopacity="1"
     objecttolerance="10"
     gridtolerance="10"
     guidetolerance="10"
     inkscape:pageopacity="0"
     inkscape:pageshadow="2"
     inkscape:window-width="1294"
     inkscape:window-height="704"
     id="namedview6"
     showgrid="false"
     inkscape:zoom="1.3487148"
     inkscape:cx="59.007174"
     inkscape:cy="86.759572"
     inkscape:window-x="72"
     inkscape:window-y="27"
     inkscape:window-maximized="1"
     inkscape:current-layer="svg4" />
  <!-- Font Awesome Free 5.15.3 by @fontawesome - https://fontawesome.com License - https://fontawesome.com/license/free (Icons: CC BY 4.0, Fonts: SIL OFL 1.1, Code: MIT License) -->
  <path
     id="path1117"
     d="M 117.97266,57.99023 72.195316,40.39843 a 6.2417972,6.2417972 0 0 0 -4.38868,0 L 22.02734,57.99023 A 3.1251955,3.1251955 0 0 0 20,60.91601 V 68.125 c 0,1.72656 1.39844,3.125 3.125,3.125 h 93.75001 c 1.72656,0 3.125,-1.39844 3.125,-3.125 v -7.20899 c 0,-1.30273 -0.8086,-2.46875 -2.02735,-2.92578 z M 32.5,77.5 v 31.25 h -3.125 c -1.72656,0 -3.125,1.39844 -3.125,3.125 v 9.375 h 87.50001 v -9.375 c 0,-1.72656 -1.39844,-3.125 -3.125,-3.125 h -3.125 V 77.5 H 94.999996 v 31.25 h -18.75 V 77.5 h -12.5 v 31.25 h -18.75 V 77.5 Z m 84.37501,50 H 23.125 c -1.72656,0 -3.125,1.39844 -3.125,3.125 v 6.25 c 0,1.72656 1.39844,3.125 3.125,3.125 h 93.75001 c 1.72656,0 3.125,-1.39844 3.125,-3.125 v -6.25 c 0,-1.72656 -1.39844,-3.125 -3.125,-3.125 z"
     inkscape:connector-curvature="0"
     style="fill:#808080;fill-opacity:1;stroke-width:0.19531251" />
</svg>
