<?xml version="1.0" encoding="UTF-8" standalone="no"?>
<svg
   xmlns:dc="http://purl.org/dc/elements/1.1/"
   xmlns:cc="http://creativecommons.org/ns#"
   xmlns:rdf="http://www.w3.org/1999/02/22-rdf-syntax-ns#"
   xmlns:svg="http://www.w3.org/2000/svg"
   xmlns="http://www.w3.org/2000/svg"
   xmlns:sodipodi="http://sodipodi.sourceforge.net/DTD/sodipodi-0.dtd"
   xmlns:inkscape="http://www.inkscape.org/namespaces/inkscape"
   viewBox="0 0 270 160"
   version="1.1"
   id="svg4"
   sodipodi:docname="background-instagram.svg"
   width="270"
   height="160"
   inkscape:version="0.92.5 (2060ec1f9f, 2020-04-08)"
   inkscape:export-filename="/home/sujit/Documents/My Projects/web-app-vibrance/public/assets/admin/images/background-user.png"
   inkscape:export-xdpi="96"
   inkscape:export-ydpi="96">
  <metadata
     id="metadata10">
    <rdf:RDF>
      <cc:Work
         rdf:about="">
        <dc:format>image/svg+xml</dc:format>
        <dc:type
           rdf:resource="http://purl.org/dc/dcmitype/StillImage" />
        <dc:title></dc:title>
      </cc:Work>
    </rdf:RDF>
  </metadata>
  <defs
     id="defs8" />
  <sodipodi:namedview
     pagecolor="#ffffff"
     bordercolor="#666666"
     borderopacity="1"
     objecttolerance="10"
     gridtolerance="10"
     guidetolerance="10"
     inkscape:pageopacity="0"
     inkscape:pageshadow="2"
     inkscape:window-width="1294"
     inkscape:window-height="704"
     id="namedview6"
     showgrid="false"
     inkscape:zoom="1.4856936"
     inkscape:cx="7.2681011"
     inkscape:cy="51.752032"
     inkscape:window-x="72"
     inkscape:window-y="27"
     inkscape:window-maximized="1"
     inkscape:current-layer="svg4" />
  <!-- Font Awesome Free 5.15.3 by @fontawesome - https://fontawesome.com License - https://fontawesome.com/license/free (Icons: CC BY 4.0, Fonts: SIL OFL 1.1, Code: MIT License) -->
  <path
     id="path132"
     d="m 70.022311,64.361262 c -14.191677,0 -25.638732,11.447055 -25.638732,25.638732 0,14.191686 11.447055,25.638736 25.638732,25.638736 14.191677,0 25.638742,-11.44705 25.638742,-25.638736 0,-14.191677 -11.447065,-25.638732 -25.638742,-25.638732 z m 0,42.307258 c -9.171037,0 -16.66852,-7.475174 -16.66852,-16.668526 0,-9.193352 7.475168,-16.66852 16.66852,-16.66852 9.193352,0 16.66853,7.475168 16.66853,16.66852 0,9.193352 -7.497493,16.668526 -16.66853,16.668526 z M 102.68995,63.312498 c 0,3.324782 -2.67768,5.980145 -5.980143,5.980145 -3.324782,0 -5.980135,-2.677678 -5.980135,-5.980145 0,-3.302457 2.677668,-5.980135 5.980135,-5.980135 3.302463,0 5.980143,2.677678 5.980143,5.980135 z m 16.98092,6.069404 c -0.37933,-8.010717 -2.20908,-15.106551 -8.07765,-20.952806 -5.84625,-5.846265 -12.9421,-7.676003 -20.952807,-8.077653 -8.256163,-0.468594 -33.002346,-0.468594 -41.258509,0 -7.988402,0.379335 -15.084236,2.209073 -20.952806,8.055338 -5.86857,5.846255 -7.676003,12.942089 -8.077653,20.952806 -0.468594,8.256163 -0.468594,33.002343 0,41.258503 0.379335,8.01072 2.209083,15.10655 8.077653,20.95281 5.86857,5.84626 12.942089,7.676 20.952806,8.07765 8.256163,0.4686 33.002346,0.4686 41.258509,0 8.010707,-0.37933 15.106557,-2.20908 20.952807,-8.07765 5.84627,-5.84626 7.676,-12.94209 8.07765,-20.95281 0.4686,-8.25616 0.4686,-32.980025 0,-41.236188 z M 109.0048,119.47674 c -1.74048,4.37354 -5.1099,7.74294 -9.50574,9.50574 -6.58262,2.61073 -22.202396,2.00826 -29.476749,2.00826 -7.274344,0 -22.916435,0.58016 -29.476739,-2.00826 -4.373536,-1.74049 -7.742938,-5.10989 -9.505741,-9.50574 -2.610733,-6.58262 -2.008258,-22.202393 -2.008258,-29.476746 0,-7.274343 -0.58016,-22.916434 2.008258,-29.476739 1.740488,-4.373536 5.10989,-7.742938 9.505741,-9.505741 6.582619,-2.610733 22.202395,-2.008258 29.476739,-2.008258 7.274353,0 22.916444,-0.58016 29.476749,2.008258 4.37354,1.740488 7.74294,5.10989 9.50574,9.505741 2.61074,6.582619 2.00826,22.202396 2.00826,29.476739 0,7.274353 0.60248,22.916446 -2.00826,29.476746 z"
     inkscape:connector-curvature="0"
     style="fill:#808080;fill-opacity:1;stroke-width:0.2231396" />
</svg>
