<?xml version="1.0" encoding="UTF-8" standalone="no"?>
<svg
   xmlns:dc="http://purl.org/dc/elements/1.1/"
   xmlns:cc="http://creativecommons.org/ns#"
   xmlns:rdf="http://www.w3.org/1999/02/22-rdf-syntax-ns#"
   xmlns:svg="http://www.w3.org/2000/svg"
   xmlns="http://www.w3.org/2000/svg"
   xmlns:sodipodi="http://sodipodi.sourceforge.net/DTD/sodipodi-0.dtd"
   xmlns:inkscape="http://www.inkscape.org/namespaces/inkscape"
   viewBox="0 0 270 160"
   version="1.1"
   id="svg4"
   sodipodi:docname="background-twitter.svg"
   width="270"
   height="160"
   inkscape:version="0.92.5 (2060ec1f9f, 2020-04-08)"
   inkscape:export-filename="/home/sujit/Documents/My Projects/web-app-vibrance/public/assets/admin/images/background-user.png"
   inkscape:export-xdpi="96"
   inkscape:export-ydpi="96">
  <metadata
     id="metadata10">
    <rdf:RDF>
      <cc:Work
         rdf:about="">
        <dc:format>image/svg+xml</dc:format>
        <dc:type
           rdf:resource="http://purl.org/dc/dcmitype/StillImage" />
        <dc:title></dc:title>
      </cc:Work>
    </rdf:RDF>
  </metadata>
  <defs
     id="defs8" />
  <sodipodi:namedview
     pagecolor="#ffffff"
     bordercolor="#666666"
     borderopacity="1"
     objecttolerance="10"
     gridtolerance="10"
     guidetolerance="10"
     inkscape:pageopacity="0"
     inkscape:pageshadow="2"
     inkscape:window-width="1294"
     inkscape:window-height="704"
     id="namedview6"
     showgrid="false"
     inkscape:zoom="1.4856936"
     inkscape:cx="7.2681011"
     inkscape:cy="51.752032"
     inkscape:window-x="72"
     inkscape:window-y="27"
     inkscape:window-maximized="1"
     inkscape:current-layer="svg4"
     showguides="false" />
  <!-- Font Awesome Free 5.15.3 by @fontawesome - https://fontawesome.com License - https://fontawesome.com/license/free (Icons: CC BY 4.0, Fonts: SIL OFL 1.1, Code: MIT License) -->
  <path
     id="path212"
     d="m 130.46882,64.92178 c 0.0781,1.0937 0.0781,2.18764 0.0781,3.28134 C 130.54692,101.56234 105.15644,140 58.75004,140 44.45309,140 31.17193,135.85919 20,128.672 c 2.03132,0.23423 3.98425,0.31239 6.09373,0.31239 11.79669,0 22.65624,-3.98426 31.32814,-10.78115 -11.09377,-0.23447 -20.39068,-7.50006 -23.59386,-17.50013 1.56264,0.23423 3.12503,0.39054 4.76581,0.39054 2.26556,0 4.53135,-0.31262 6.64059,-0.85923 C 33.67194,97.89047 24.9998,87.73433 24.9998,75.46871 v -0.31239 c 3.35924,1.87502 7.26582,3.04687 11.40615,3.20294 -6.7969,-4.53134 -11.24984,-12.26562 -11.24984,-21.01568 0,-4.68742 1.24977,-8.98429 3.4374,-12.73432 C 41.01545,59.92175 59.68743,69.92158 80.62472,71.01552 80.23418,69.14051 79.99971,67.18758 79.99971,65.23441 79.99971,51.328 91.24979,40 105.23412,40 c 7.26559,0 13.82801,3.04687 18.43751,7.96875 5.70296,-1.0937 11.17169,-3.20318 16.01565,-6.09374 -1.87525,5.85951 -5.85951,10.78139 -11.09377,13.90617 5.07819,-0.5466 10.00007,-1.95316 14.53118,-3.90609 -3.43693,4.99979 -7.73404,9.45274 -12.65592,13.04669 z"
     inkscape:connector-curvature="0"
     style="fill:#808080;fill-opacity:1;stroke-width:0.24047884" />
</svg>
