<?xml version="1.0" encoding="UTF-8" standalone="no"?>
<svg
   xmlns:dc="http://purl.org/dc/elements/1.1/"
   xmlns:cc="http://creativecommons.org/ns#"
   xmlns:rdf="http://www.w3.org/1999/02/22-rdf-syntax-ns#"
   xmlns:svg="http://www.w3.org/2000/svg"
   xmlns="http://www.w3.org/2000/svg"
   xmlns:sodipodi="http://sodipodi.sourceforge.net/DTD/sodipodi-0.dtd"
   xmlns:inkscape="http://www.inkscape.org/namespaces/inkscape"
   viewBox="0 0 270 160"
   version="1.1"
   id="svg4"
   sodipodi:docname="background-youtube.svg"
   width="270"
   height="160"
   inkscape:version="0.92.5 (2060ec1f9f, 2020-04-08)"
   inkscape:export-filename="/home/sujit/Documents/My Projects/web-app-vibrance/public/assets/admin/images/background-user.png"
   inkscape:export-xdpi="96"
   inkscape:export-ydpi="96">
  <metadata
     id="metadata10">
    <rdf:RDF>
      <cc:Work
         rdf:about="">
        <dc:format>image/svg+xml</dc:format>
        <dc:type
           rdf:resource="http://purl.org/dc/dcmitype/StillImage" />
        <dc:title></dc:title>
      </cc:Work>
    </rdf:RDF>
  </metadata>
  <defs
     id="defs8" />
  <sodipodi:namedview
     pagecolor="#ffffff"
     bordercolor="#666666"
     borderopacity="1"
     objecttolerance="10"
     gridtolerance="10"
     guidetolerance="10"
     inkscape:pageopacity="0"
     inkscape:pageshadow="2"
     inkscape:window-width="1294"
     inkscape:window-height="704"
     id="namedview6"
     showgrid="false"
     inkscape:zoom="1.4856936"
     inkscape:cx="7.2681011"
     inkscape:cy="51.752032"
     inkscape:window-x="72"
     inkscape:window-y="27"
     inkscape:window-maximized="1"
     inkscape:current-layer="svg4"
     showguides="false" />
  <!-- Font Awesome Free 5.15.3 by @fontawesome - https://fontawesome.com License - https://fontawesome.com/license/free (Icons: CC BY 4.0, Fonts: SIL OFL 1.1, Code: MIT License) -->
  <path
     id="path287"
     d="M 159.25052,55.6466 C 157.61484,49.4878 152.79557,44.6372 146.67656,42.9912 135.58542,40 91.1112,40 91.1112,40 c 0,0 -44.47396,0 -55.56537,2.9912 C 29.42682,44.6375 24.60755,49.4878 22.97188,55.6466 20,66.8099 20,90.101 20,90.101 c 0,0 0,23.2912 2.97188,34.4545 1.63567,6.1588 6.45494,10.8073 12.57395,12.4534 C 46.63724,140 91.1112,140 91.1112,140 c 0,0 44.47396,0 55.56536,-2.9911 6.11901,-1.6461 10.93828,-6.2946 12.57396,-12.4534 2.97188,-11.1633 2.97188,-34.4545 2.97188,-34.4545 0,0 0,-23.2911 -2.97188,-34.4544 z M 76.56563,111.2477 V 68.9544 l 37.17161,21.1472 z"
     inkscape:connector-curvature="0"
     style="fill:#808080;fill-opacity:1;stroke-width:0.26041666" />
</svg>
