<?xml version="1.0" encoding="UTF-8" standalone="no"?>
<svg
   xmlns:dc="http://purl.org/dc/elements/1.1/"
   xmlns:cc="http://creativecommons.org/ns#"
   xmlns:rdf="http://www.w3.org/1999/02/22-rdf-syntax-ns#"
   xmlns:svg="http://www.w3.org/2000/svg"
   xmlns="http://www.w3.org/2000/svg"
   xmlns:sodipodi="http://sodipodi.sourceforge.net/DTD/sodipodi-0.dtd"
   xmlns:inkscape="http://www.inkscape.org/namespaces/inkscape"
   viewBox="0 0 270 160"
   version="1.1"
   id="svg4"
   sodipodi:docname="background-day.svg"
   width="270"
   height="160"
   inkscape:version="0.92.5 (2060ec1f9f, 2020-04-08)"
   inkscape:export-filename="/home/sujit/Documents/My Projects/web-app-vibrance/public/assets/admin/images/background-user.png"
   inkscape:export-xdpi="96"
   inkscape:export-ydpi="96">
  <metadata
     id="metadata10">
    <rdf:RDF>
      <cc:Work
         rdf:about="">
        <dc:format>image/svg+xml</dc:format>
        <dc:type
           rdf:resource="http://purl.org/dc/dcmitype/StillImage" />
        <dc:title />
      </cc:Work>
    </rdf:RDF>
  </metadata>
  <defs
     id="defs8" />
  <sodipodi:namedview
     pagecolor="#ffffff"
     bordercolor="#666666"
     borderopacity="1"
     objecttolerance="10"
     gridtolerance="10"
     guidetolerance="10"
     inkscape:pageopacity="0"
     inkscape:pageshadow="2"
     inkscape:window-width="1294"
     inkscape:window-height="704"
     id="namedview6"
     showgrid="false"
     inkscape:zoom="2.9713873"
     inkscape:cx="147.34975"
     inkscape:cy="86.759572"
     inkscape:window-x="72"
     inkscape:window-y="27"
     inkscape:window-maximized="1"
     inkscape:current-layer="svg4" />
  <!-- Font Awesome Free 5.15.3 by @fontawesome - https://fontawesome.com License - https://fontawesome.com/license/free (Icons: CC BY 4.0, Fonts: SIL OFL 1.1, Code: MIT License) -->
  <path
     id="path1195"
     d="m 20,130.625 c 0,5.1758 4.1992,9.375 9.375,9.375 h 68.75 c 5.1758,0 9.375,-4.1992 9.375,-9.375 V 77.5 H 20 Z m 12.5,-37.5 C 32.5,91.4063 33.9063,90 35.625,90 h 18.75 c 1.7188,0 3.125,1.4063 3.125,3.125 v 18.75 c 0,1.7188 -1.4062,3.125 -3.125,3.125 H 35.625 C 33.9063,115 32.5,113.5938 32.5,111.875 Z M 98.125,52.5 H 88.75 V 43.125 C 88.75,41.4062 87.3438,40 85.625,40 h -6.25 c -1.7187,0 -3.125,1.4062 -3.125,3.125 V 52.5 h -25 V 43.125 C 51.25,41.4062 49.8438,40 48.125,40 h -6.25 c -1.7187,0 -3.125,1.4062 -3.125,3.125 V 52.5 H 29.375 C 24.1992,52.5 20,56.6992 20,61.875 v 9.375 h 87.5 v -9.375 c 0,-5.1758 -4.1992,-9.375 -9.375,-9.375 z"
     inkscape:connector-curvature="0"
     style="fill:#808080;fill-opacity:1;stroke-width:0.1953125" />
</svg>
