<?xml version="1.0" encoding="UTF-8" standalone="no"?>
<svg
   xmlns:dc="http://purl.org/dc/elements/1.1/"
   xmlns:cc="http://creativecommons.org/ns#"
   xmlns:rdf="http://www.w3.org/1999/02/22-rdf-syntax-ns#"
   xmlns:svg="http://www.w3.org/2000/svg"
   xmlns="http://www.w3.org/2000/svg"
   xmlns:sodipodi="http://sodipodi.sourceforge.net/DTD/sodipodi-0.dtd"
   xmlns:inkscape="http://www.inkscape.org/namespaces/inkscape"
   viewBox="0 0 270 160"
   version="1.1"
   id="svg4"
   sodipodi:docname="background-user.svg"
   width="270"
   height="160"
   inkscape:version="0.92.5 (2060ec1f9f, 2020-04-08)"
   inkscape:export-filename="/home/sujit/Documents/My Projects/web-app-vibrance/public/assets/admin/images/background-user.png"
   inkscape:export-xdpi="96"
   inkscape:export-ydpi="96">
  <metadata
     id="metadata10">
    <rdf:RDF>
      <cc:Work
         rdf:about="">
        <dc:format>image/svg+xml</dc:format>
        <dc:type
           rdf:resource="http://purl.org/dc/dcmitype/StillImage" />
        <dc:title></dc:title>
      </cc:Work>
    </rdf:RDF>
  </metadata>
  <defs
     id="defs8" />
  <sodipodi:namedview
     pagecolor="#ffffff"
     bordercolor="#666666"
     borderopacity="1"
     objecttolerance="10"
     gridtolerance="10"
     guidetolerance="10"
     inkscape:pageopacity="0"
     inkscape:pageshadow="2"
     inkscape:window-width="1294"
     inkscape:window-height="704"
     id="namedview6"
     showgrid="false"
     inkscape:zoom="1.3487148"
     inkscape:cx="59.007174"
     inkscape:cy="86.759572"
     inkscape:window-x="72"
     inkscape:window-y="27"
     inkscape:window-maximized="1"
     inkscape:current-layer="svg4" />
  <!-- Font Awesome Free 5.15.3 by @fontawesome - https://fontawesome.com License - https://fontawesome.com/license/free (Icons: CC BY 4.0, Fonts: SIL OFL 1.1, Code: MIT License) -->
  <path
     d="m 139.23828,112.91015 c 0.50782,-2.75389 0.50782,-5.5664 0,-8.3203 l 5.03906,-2.91016 c 0.58595,-0.33203 0.83986,-1.01562 0.64454,-1.66016 -1.30859,-4.218749 -3.55468,-8.046878 -6.48438,-11.210942 -0.4492,-0.488274 -1.17187,-0.605459 -1.7578,-0.273433 l -5.03907,2.910163 c -2.12891,-1.816418 -4.57032,-3.222659 -7.20703,-4.160169 v -5.820301 c 0,-0.664064 -0.46875,-1.250005 -1.11327,-1.386723 -4.35547,-0.976559 -8.78908,-0.937497 -12.92969,0 -0.64454,0.13673 -1.11329,0.722659 -1.11329,1.386723 v 5.820301 c -2.63672,0.93751 -5.07814,2.343751 -7.20703,4.160169 l -5.039061,-2.910163 c -0.566408,-0.332026 -1.308597,-0.214841 -1.757808,0.273433 -2.929693,3.164064 -5.175791,6.992193 -6.484376,11.210942 -0.195323,0.64454 0.07816,1.32813 0.644521,1.66016 l 5.039074,2.91016 c -0.507818,2.7539 -0.507818,5.56641 0,8.3203 l -5.039074,2.91016 c -0.585928,0.33204 -0.839844,1.01563 -0.644521,1.66016 1.308585,4.21875 3.554683,8.02734 6.484376,11.21093 0.449211,0.48829 1.171869,0.60548 1.757808,0.27345 l 5.039061,-2.91016 c 2.12889,1.8164 4.57031,3.22266 7.20703,4.16016 v 5.8203 c 0,0.66407 0.46875,1.25001 1.11329,1.38673 4.35545,0.97655 8.78906,0.93749 12.92969,0 0.64452,-0.13673 1.11327,-0.72266 1.11327,-1.38673 v -5.8203 c 2.63671,-0.9375 5.07812,-2.34376 7.20703,-4.16016 l 5.03907,2.91016 c 0.56641,0.33203 1.3086,0.21484 1.7578,-0.27345 2.9297,-3.16406 5.17579,-6.99218 6.48438,-11.21093 0.19532,-0.64453 -0.0781,-1.32812 -0.64454,-1.66016 z m -22.36327,5.3125 c -5.23437,0 -9.47267,-4.25781 -9.47267,-9.47266 0,-5.21484 4.25783,-9.472649 9.47267,-9.472649 5.21484,0 9.47266,4.257809 9.47266,9.472649 0,5.21485 -4.23829,9.47266 -9.47266,9.47266 z M 63.750008,90.000002 c 13.808595,0 25.000006,-11.191413 25.000006,-25.00001 C 88.750014,51.191411 77.558603,40 63.750008,40 49.941412,40 38.750001,51.191411 38.750001,64.999992 c 0,13.808597 11.191411,25.00001 25.000007,25.00001 z m 39.296872,44.238278 c -0.44922,-0.23437 -0.89844,-0.50781 -1.32813,-0.76172 l -1.54295,0.89844 c -1.171884,0.66406 -2.500013,1.03515 -3.828134,1.03515 -2.128912,0 -4.179686,-0.89844 -5.644533,-2.46094 -3.574214,-3.86718 -6.308598,-8.57421 -7.851568,-13.59374 -1.074215,-3.45703 0.371101,-7.10937 3.496104,-8.92579 l 1.542957,-0.89842 c -0.01958,-0.50782 -0.01958,-1.01563 0,-1.52345 l -1.542957,-0.89843 c -3.125003,-1.79687 -4.570319,-5.46876 -3.496104,-8.925785 0.175792,-0.566411 0.429694,-1.132821 0.625003,-1.699218 -0.742189,-0.05858 -1.464846,-0.234385 -2.226566,-0.234385 h -3.26172 c -4.335932,1.992196 -9.160153,3.125004 -14.238274,3.125004 -5.078122,0 -9.882812,-1.132808 -14.238276,-3.125004 h -3.26172 C 31.757822,96.249992 20,108.00781 20,122.5 v 8.125 c 0,5.17579 4.199231,9.375 9.375007,9.375 h 68.750002 c 1.972651,0 3.808601,-0.625 5.312501,-1.66015 -0.23438,-0.74219 -0.39063,-1.50391 -0.39063,-2.3047 z"
     id="path2"
     inkscape:connector-curvature="0"
     style="fill:#808080;fill-opacity:1;stroke-width:0.1953125" />
</svg>
